<svg version="1" xmlns="http://www.w3.org/2000/svg" width="788" height="788" viewBox="0 0 591.000000 591.000000"><path d="M213.5 43.8c-7.1.4-18.8 3.3-26.5 6.5-28.2 11.6-48.3 35.6-54.5 65.3-1.8 8.4-2.1 26.9-.7 33.9l.9 4L69.5 217 6.3 280.5l.1 61.8.1 61.7 30 30.3c16.5 16.7 31 30.9 32.1 31.6 1.8 1.1 13.7 1.3 59 1.3 31.3 0 59.1-.1 61.8-.1l4.8-.1 132.4-132.3 132.3-132.3 25.2 25.2 25.2 25.3-60.1 60.1c-33.1 33.1-60.6 59.9-61 59.6-2.8-1.7-18.9-2.5-28.7-1.4-35.8 4.2-64.6 27.9-75.9 62.3-3.2 9.9-3.7 13.4-3.9 26-.4 21.6 5 38.6 17.3 55.2 14.8 19.7 37.1 32.9 61 35.9 32.9 4.1 66.1-10.4 85.2-37.3 5.3-7.5 13.1-23.5 12.7-26.3 0-.3.4-1.7 1-3.2 2.5-6.7 3.5-27.4 1.8-38.1l-.8-4.8 63.1-63.1 63-63V190.6l-31.4-31.5-31.4-31.4-60.9-.1c-33.4-.1-61.7.2-62.8.5-1.1.4-61.2 60-133.5 132.3C191.7 332.8 132.2 392 131.9 392c-.3 0-11.8-11.2-25.6-25l-25.1-25 60.1-60c33-33.1 60.6-59.9 61.3-59.6 1.5.6 15 2 18.4 1.9 31.1-.7 58.1-15.2 74.9-40.3 16.4-24.6 19.8-54.8 9.2-83.1-2.1-5.6-10.5-20.4-13.2-23.3-13.8-14.7-22.3-21.1-35.9-26.8-12.7-5.4-28.2-8-42.5-7zm21.8 57.5c18.6 8.5 26.5 30 17.7 48.2-10.6 21.9-39.8 26.8-57 9.6-7.8-7.8-10.8-15.5-10.5-26.8.5-15.3 11.4-28.9 26.4-32.9 7-1.9 16.9-1.1 23.4 1.9zm146.5 326.1c4.1 1.5 8.3 4 12.5 7.6 2.6 2.2 7.4 9.9 9.3 15 2 5.6 2 16.1-.1 22-1.5 4.5-8.1 15-9.4 15-.3 0-1.7 1-3.1 2.3-9.2 8.4-27.2 9.5-39.3 2.3-23.2-13.6-23.6-46.6-.7-61.1 8.4-5.3 21.4-6.6 30.8-3.1z"/></svg>